<?xml version="1.0" standalone="no"?>
<!DOCTYPE svg PUBLIC "-//W3C//DTD SVG 20010904//EN"
 "http://www.w3.org/TR/2001/REC-SVG-20010904/DTD/svg10.dtd">
<svg version="1.0" xmlns="http://www.w3.org/2000/svg"
 width="740.000000pt" height="524.000000pt" viewBox="0 0 740.000000 524.000000"
 preserveAspectRatio="xMidYMid meet">

<g transform="translate(0.000000,524.000000) scale(0.100000,-0.100000)"
fill="#ffffff" stroke="none">
<path d="M0 4988 l0 -253 21 25 c43 53 70 125 103 267 19 82 39 161 45 176 6
16 11 30 11 33 0 2 -40 4 -90 4 l-90 0 0 -252z"/>
<path d="M190 5215 c-16 -42 -39 -127 -60 -225 -24 -111 -55 -182 -99 -232
-27 -32 -31 -42 -31 -97 0 -33 4 -61 8 -61 20 0 94 63 126 107 45 62 77 148
126 342 22 87 42 165 46 174 5 15 -2 17 -50 17 -51 0 -57 -2 -66 -25z"/>
<path d="M276 5053 c-69 -271 -130 -389 -232 -449 -38 -23 -44 -30 -44 -60 0
-19 3 -34 8 -34 22 0 121 69 170 118 99 99 141 204 182 452 12 69 23 133 26
143 4 14 -1 17 -28 17 l-34 0 -48 -187z"/>
<path d="M400 5236 c0 -36 -57 -326 -75 -384 -27 -86 -81 -176 -141 -236 -44
-44 -150 -116 -171 -116 -9 0 -13 -14 -13 -44 l0 -45 53 15 c115 33 259 162
320 288 37 76 54 156 72 341 9 88 18 166 20 173 3 8 -7 12 -30 12 -19 0 -35
-2 -35 -4z"/>
<path d="M477 5208 c-4 -18 -11 -89 -17 -158 -20 -230 -54 -333 -143 -445 -81
-100 -163 -161 -259 -191 -55 -17 -58 -19 -58 -51 l0 -33 58 0 c104 0 142 18
247 119 52 50 123 113 157 141 112 92 110 85 77 281 -16 95 -20 153 -17 247 4
120 4 122 -18 122 -17 0 -23 -8 -27 -32z"/>
<path d="M535 5164 c-9 -91 -2 -177 26 -336 25 -141 19 -159 -68 -227 -31 -25
-106 -93 -168 -152 -121 -116 -136 -124 -257 -135 l-68 -7 0 -41 c1 -38 4 -43
42 -61 97 -48 129 -138 109 -310 -15 -127 -20 -150 -69 -320 -62 -216 -82
-314 -81 -390 l1 -70 15 34 c8 19 32 123 53 230 21 108 58 270 83 361 25 91
52 197 61 235 21 93 68 187 109 217 17 14 70 43 117 65 140 65 170 118 170
300 l0 86 43 42 c100 96 407 137 568 76 134 -51 266 -165 375 -326 119 -174
162 -286 189 -487 23 -170 55 -248 118 -287 53 -32 111 -35 252 -11 161 28
248 24 321 -13 101 -51 138 -121 132 -244 -4 -72 -10 -93 -48 -170 -36 -73
-60 -105 -144 -189 -66 -67 -126 -116 -174 -143 -138 -80 -172 -129 -116 -166
14 -9 72 -28 127 -42 174 -42 260 -103 316 -222 24 -52 26 -65 26 -196 l-1
-140 -53 -155 c-39 -113 -54 -170 -54 -210 0 -117 69 -194 343 -375 214 -143
310 -220 357 -290 30 -43 34 -56 30 -95 -4 -42 -90 -299 -115 -347 -21 -39
-63 -62 -166 -94 -218 -67 -297 -136 -426 -374 -23 -44 -58 -104 -76 -132
l-34 -53 34 0 c40 0 46 7 129 156 119 214 236 289 339 219 73 -50 106 -183 75
-312 l-14 -63 47 0 c45 0 48 1 54 32 4 18 11 123 15 233 6 157 12 207 25 233
24 46 56 59 113 44 94 -26 154 -86 259 -257 68 -113 173 -216 247 -243 101
-38 193 -24 258 38 38 36 67 91 129 242 69 168 143 222 272 198 114 -21 272
-125 328 -216 26 -41 28 -109 7 -150 -18 -35 -77 -91 -132 -128 l-40 -26 67 0
c58 0 78 6 174 51 175 81 196 116 125 207 -55 70 -109 111 -304 237 -101 65
-183 126 -201 148 -29 36 -31 45 -31 115 0 62 5 87 25 127 41 81 130 161 278
248 137 81 231 150 274 202 14 17 62 85 108 153 109 163 127 176 269 180 87 3
126 -1 216 -22 69 -16 170 -29 266 -36 189 -12 250 -29 301 -80 33 -32 38 -44
38 -82 0 -59 -42 -124 -106 -165 -27 -18 -100 -52 -163 -77 -62 -25 -133 -57
-156 -71 -88 -51 -145 -150 -145 -251 0 -73 39 -250 91 -413 83 -258 93 -325
60 -419 l-18 -53 50 3 c51 3 51 3 60 43 21 97 -7 234 -96 472 -106 280 -99
426 24 537 38 34 74 53 166 86 188 68 242 106 289 206 45 96 44 168 -4 225
-47 57 -96 71 -286 80 -212 11 -308 23 -411 54 -254 77 -295 200 -142 425 56
81 230 294 285 346 104 100 201 133 318 108 142 -29 289 -113 479 -273 120
-101 175 -133 262 -156 117 -31 360 -8 460 43 54 28 93 76 93 114 0 52 -28 92
-146 209 -126 124 -179 200 -243 346 -89 203 -138 249 -355 337 -171 69 -171
69 -171 286 l0 166 -62 121 c-73 142 -93 205 -93 289 0 133 51 231 245 474
162 204 265 366 265 419 0 23 -34 48 -115 85 -82 37 -157 96 -191 150 l-29 45
-102 1 -102 0 31 -50 c41 -67 47 -126 18 -209 -27 -81 -64 -135 -139 -203 -72
-64 -164 -112 -325 -167 -229 -79 -303 -129 -382 -259 -106 -174 -176 -272
-224 -315 -100 -90 -218 -126 -304 -93 -59 23 -168 137 -203 213 -67 146 -17
243 191 372 206 128 240 192 201 371 -19 84 -19 192 -1 235 8 19 27 51 42 70
l26 35 -50 0 c-46 0 -53 -3 -82 -37 -51 -63 -56 -101 -31 -228 34 -175 27
-240 -33 -312 -14 -17 -84 -70 -155 -117 -70 -47 -140 -101 -155 -120 -69 -91
-70 -178 -6 -337 47 -118 50 -155 14 -199 -36 -43 -80 -63 -225 -104 -265 -74
-388 -139 -445 -234 -44 -72 -48 -120 -21 -264 30 -168 30 -297 -2 -357 -34
-65 -112 -142 -237 -236 -134 -100 -191 -163 -248 -275 -57 -111 -170 -415
-190 -513 -20 -94 -20 -122 -1 -220 21 -112 7 -154 -62 -183 -42 -18 -96 -18
-190 2 -160 33 -273 105 -323 207 -28 56 -31 73 -31 153 0 52 10 151 25 237
54 310 37 385 -134 607 -56 73 -70 124 -50 187 7 21 50 113 96 205 50 100 91
195 100 235 37 159 -27 313 -160 380 -69 35 -156 40 -296 18 -141 -23 -207
-18 -255 20 -49 36 -85 117 -97 214 -21 170 -67 294 -151 409 -170 233 -272
334 -402 397 -99 49 -172 65 -295 65 -182 0 -273 24 -331 87 -51 54 -63 91
-67 206 l-4 107 -28 0 c-28 0 -28 -1 -35 -76z m5815 -409 c16 -19 15 -70 0
-111 -6 -16 -47 -90 -90 -164 -165 -282 -173 -362 -69 -667 47 -139 50 -153
47 -234 -3 -75 -7 -92 -33 -135 -34 -54 -104 -107 -168 -126 -64 -19 -295 -16
-395 6 -298 64 -525 222 -578 402 -26 92 -22 101 177 339 27 33 86 113 131
178 87 126 155 196 234 239 28 15 138 56 245 92 122 41 241 89 323 131 70 36
136 65 146 65 10 0 23 -7 30 -15z m-1487 -966 c24 -13 112 -92 207 -188 229
-231 294 -267 612 -340 204 -47 251 -64 278 -99 37 -47 21 -102 -51 -166 -90
-82 -202 -109 -413 -99 -225 11 -470 -33 -636 -114 -75 -36 -110 -61 -166
-117 -62 -62 -79 -88 -134 -201 -137 -287 -161 -332 -212 -391 -133 -152 -301
-250 -537 -311 -120 -31 -265 -35 -326 -9 -46 20 -91 59 -111 98 -35 67 -10
243 65 447 67 183 119 251 302 397 153 122 198 185 219 305 11 66 6 111 -35
299 -43 197 52 335 285 414 142 47 392 89 568 95 26 0 59 -7 85 -20z m1722
-689 c87 -34 183 -134 255 -265 76 -141 136 -230 201 -300 103 -111 129 -151
129 -202 0 -37 -5 -50 -32 -77 -18 -18 -60 -43 -93 -56 -51 -21 -78 -24 -185
-25 -107 0 -134 3 -185 23 -68 26 -153 83 -287 194 -51 42 -167 122 -258 177
-91 56 -177 115 -192 131 -64 70 -14 172 150 302 133 106 196 129 337 124 75
-2 115 -9 160 -26z m-1124 -275 c130 -26 229 -90 229 -148 0 -59 -88 -191
-325 -487 -145 -182 -209 -250 -272 -286 -58 -35 -89 -42 -248 -60 -234 -26
-338 -55 -422 -120 -18 -14 -73 -78 -122 -142 -100 -133 -144 -175 -216 -208
-157 -72 -469 -51 -586 39 -53 41 -64 57 -55 91 10 42 78 77 278 146 417 142
499 181 593 282 76 82 129 181 215 400 61 157 129 277 186 329 166 152 471
219 745 164z m-543 -1095 c60 -27 79 -73 64 -154 -15 -80 -56 -157 -117 -220
-68 -71 -141 -118 -270 -172 -183 -77 -209 -101 -301 -269 -73 -133 -110 -177
-169 -200 -42 -15 -57 -16 -143 -5 -306 38 -553 152 -616 284 -23 48 -20 71
14 109 65 75 202 111 500 133 316 22 354 39 472 214 125 183 191 244 308 281
77 25 202 25 258 -1z m-1058 -1089 c81 -25 156 -73 177 -114 36 -71 -7 -240
-85 -329 -41 -46 -123 -82 -172 -75 -125 17 -230 137 -280 321 -33 118 -15
175 65 213 43 20 211 11 295 -16z"/>
<path d="M6165 4686 c-77 -40 -183 -83 -295 -120 -96 -32 -203 -71 -237 -87
-87 -41 -168 -120 -254 -247 -83 -123 -120 -170 -207 -267 -72 -80 -102 -136
-102 -189 0 -62 46 -144 126 -223 59 -58 92 -82 176 -122 236 -115 546 -150
709 -80 101 44 157 150 146 274 -3 34 -22 106 -42 161 -54 151 -75 243 -75
331 0 101 27 176 116 330 98 170 116 207 122 258 l5 45 -34 -1 c-21 0 -80 -24
-154 -63z m-185 -187 c90 -21 107 -65 84 -214 -23 -142 -14 -250 31 -395 70
-222 79 -294 46 -366 -69 -153 -341 -197 -636 -103 -206 65 -334 188 -352 336
-5 44 -1 61 24 115 16 35 57 97 89 138 33 41 94 120 136 175 41 56 101 124
133 153 84 77 220 141 343 162 26 4 49 8 52 9 3 0 25 -4 50 -10z"/>
<path d="M5820 4475 c-30 -9 -92 -33 -138 -55 -103 -49 -176 -116 -288 -265
-46 -60 -104 -137 -129 -170 -89 -114 -110 -176 -91 -259 45 -190 273 -320
586 -333 79 -4 146 -1 182 6 62 13 139 60 171 102 44 61 39 164 -17 338 -60
187 -65 251 -40 522 6 60 4 68 -19 94 -22 26 -32 29 -93 32 -39 2 -93 -4 -124
-12z m75 -145 c33 -31 59 -104 79 -225 10 -55 33 -153 51 -217 41 -142 52
-230 35 -283 -18 -53 -72 -109 -133 -136 -45 -20 -67 -23 -162 -22 -295 4
-510 142 -509 328 0 70 21 123 91 228 112 168 235 289 340 333 77 33 170 30
208 -6z"/>
<path d="M5725 4337 c-106 -35 -197 -111 -305 -254 -147 -196 -180 -304 -127
-410 47 -92 150 -157 305 -194 116 -28 276 -24 338 8 48 26 101 83 110 119 12
48 -4 178 -36 284 -17 58 -40 156 -51 219 -21 122 -43 185 -77 215 -27 24
-104 30 -157 13z m68 -101 c65 -27 102 -97 157 -302 65 -239 53 -332 -47 -391
-42 -24 -60 -28 -149 -31 -145 -6 -248 27 -335 105 -84 76 -100 155 -56 277
58 159 182 293 311 338 62 21 78 22 119 4z"/>
<path d="M5639 4203 c-129 -64 -256 -238 -281 -385 -10 -58 -10 -71 6 -106 55
-122 222 -201 402 -190 139 9 214 76 214 190 0 61 -71 339 -106 412 -52 110
-124 134 -235 79z m131 -115 c44 -30 85 -107 110 -203 26 -102 25 -152 -3
-205 -69 -131 -322 -115 -417 26 -53 79 -22 218 71 319 24 26 59 55 78 65 51
27 120 26 161 -2z"/>
<path d="M5625 4081 c-90 -40 -176 -178 -178 -283 -2 -89 77 -165 197 -189
114 -23 212 22 235 108 16 58 -9 188 -51 272 -52 105 -114 133 -203 92z m86
-147 c29 -14 68 -80 69 -112 0 -28 -32 -80 -56 -91 -99 -45 -194 47 -148 144
17 36 65 75 92 75 7 0 27 -7 43 -16z"/>
<path d="M5644 3930 c-37 -15 -64 -59 -64 -105 0 -36 5 -48 31 -69 35 -29 67
-33 108 -11 32 16 41 33 41 76 0 42 -25 86 -60 104 -16 8 -30 15 -32 14 -2 0
-13 -4 -24 -9z"/>
<path d="M4665 3769 c-119 -10 -336 -51 -426 -80 -260 -85 -332 -206 -268
-449 15 -57 22 -116 23 -180 1 -84 -2 -102 -27 -154 -40 -86 -86 -137 -218
-242 -64 -51 -133 -113 -154 -136 -88 -103 -194 -392 -202 -553 -4 -82 -3 -93
19 -125 13 -19 43 -45 68 -58 41 -22 54 -23 160 -19 171 7 351 65 504 164 145
93 236 205 316 389 126 291 202 392 355 471 187 96 316 122 665 132 256 6 267
7 320 32 99 46 158 114 145 166 -8 33 -60 54 -230 93 -202 45 -269 67 -365
116 -115 59 -226 150 -341 282 -98 110 -172 164 -223 161 -12 -1 -66 -5 -121
-10z m130 -69 c88 -30 119 -54 276 -207 150 -145 246 -217 386 -287 40 -20 88
-50 108 -67 75 -66 54 -78 -329 -180 -391 -104 -561 -190 -660 -337 -25 -37
-68 -120 -97 -186 -88 -205 -160 -307 -285 -406 -150 -119 -335 -185 -500
-178 -78 3 -97 8 -131 30 -58 38 -78 86 -77 183 2 169 82 367 194 483 25 26
95 93 156 148 82 76 119 118 144 165 33 61 35 69 34 159 0 57 -8 127 -19 175
-11 45 -19 117 -19 165 -1 76 3 91 29 139 33 60 85 106 162 145 154 77 481
107 628 56z"/>
<path d="M4423 3699 c-285 -37 -433 -151 -433 -333 0 -39 9 -117 20 -174 11
-56 20 -137 20 -180 0 -133 -59 -224 -246 -383 -143 -122 -221 -244 -265 -418
-28 -109 -24 -236 7 -278 42 -55 78 -68 194 -67 86 1 121 6 190 29 267 87 426
240 551 531 66 156 107 220 182 290 114 106 263 169 631 268 256 69 300 85
304 113 4 25 -17 41 -153 112 -143 76 -205 123 -368 280 -157 151 -201 182
-292 205 -64 17 -233 20 -342 5z m260 -44 c132 -28 238 -101 406 -279 111
-119 141 -167 141 -227 0 -32 -6 -53 -17 -65 -37 -37 -136 -93 -279 -159 -199
-91 -272 -134 -355 -212 -50 -47 -77 -83 -100 -132 -155 -327 -156 -330 -247
-420 -91 -90 -151 -126 -283 -172 -88 -30 -201 -32 -249 -3 -60 35 -80 76 -80
163 0 90 18 161 61 251 25 51 63 97 174 210 79 80 154 164 168 186 45 73 61
146 54 254 -4 52 -11 110 -16 129 -22 73 -31 180 -20 231 19 90 96 167 208
210 121 46 309 62 434 35z"/>
<path d="M4347 3634 c-92 -20 -166 -54 -217 -100 -83 -75 -96 -150 -60 -336
26 -129 28 -255 5 -322 -27 -80 -60 -122 -209 -276 -154 -158 -185 -205 -216
-326 -34 -132 -24 -210 34 -264 77 -71 344 -10 493 112 81 67 132 137 199 278
36 74 77 159 92 189 59 121 196 230 413 327 247 111 325 160 335 211 11 57
-18 109 -125 228 -149 166 -245 237 -370 275 -78 24 -270 26 -374 4z m336 -30
c105 -27 175 -70 267 -163 94 -94 160 -203 160 -262 0 -78 -67 -142 -235 -226
-255 -128 -360 -200 -419 -287 -20 -28 -63 -114 -96 -191 -73 -171 -115 -233
-195 -291 -134 -95 -276 -137 -355 -104 -66 27 -95 132 -65 236 25 90 57 136
181 265 220 230 236 280 183 583 -32 185 -20 266 49 339 41 43 156 96 242 110
65 11 226 6 283 -9z"/>
<path d="M4387 3595 c-131 -27 -219 -81 -258 -157 -32 -63 -33 -111 -4 -282
50 -289 34 -342 -157 -544 -179 -189 -218 -256 -218 -372 0 -169 105 -204 309
-103 152 75 211 145 292 350 90 228 162 296 491 464 176 90 229 132 248 196
12 38 11 46 -17 105 -76 161 -213 284 -372 334 -67 22 -232 26 -314 9z m258
-40 c86 -22 152 -57 216 -114 104 -93 154 -201 130 -281 -27 -90 -90 -136
-434 -311 -278 -142 -314 -179 -300 -314 5 -45 1 -63 -24 -117 -38 -82 -78
-127 -144 -163 -106 -57 -189 -29 -189 64 1 92 61 176 208 287 118 89 127 103
125 189 -1 38 -17 144 -36 235 -19 91 -38 188 -41 215 -9 65 8 150 39 197 67
100 285 155 450 113z"/>
<path d="M4426 3549 c-33 -5 -87 -22 -121 -38 -134 -62 -162 -167 -109 -409
59 -273 66 -347 35 -398 -11 -18 -61 -65 -113 -106 -150 -120 -192 -174 -204
-265 -5 -44 -3 -54 15 -72 44 -44 164 -11 229 63 60 69 82 126 82 217 0 55 5
92 17 116 23 49 99 106 228 170 334 167 446 237 480 304 20 38 18 116 -4 164
-24 53 -109 145 -169 183 -96 62 -242 90 -366 71z m193 -50 c188 -43 318 -210
267 -343 -36 -94 -177 -186 -371 -241 -103 -30 -140 -27 -177 13 -59 62 -118
237 -118 347 1 97 68 185 168 218 54 18 167 21 231 6z"/>
<path d="M4410 3485 c-118 -33 -175 -104 -174 -215 1 -115 52 -269 112 -332
33 -36 71 -36 186 -3 156 45 292 130 332 206 40 78 -2 204 -92 271 -95 72
-253 104 -364 73z m221 -50 c138 -49 215 -177 165 -274 -23 -43 -92 -100 -165
-135 -54 -25 -78 -31 -137 -31 -62 0 -75 3 -106 27 -79 61 -123 227 -83 313
20 42 69 84 117 102 47 17 158 16 209 -2z"/>
<path d="M4425 3425 c-54 -21 -103 -71 -116 -120 -31 -112 41 -271 132 -295
117 -32 334 87 354 193 14 75 -40 158 -131 203 -69 34 -177 42 -239 19z m175
-81 c48 -20 82 -63 83 -108 2 -74 -77 -131 -170 -124 -59 5 -88 25 -109 75
-20 46 -17 86 8 118 42 53 115 68 188 39z"/>
<path d="M4441 3314 c-27 -22 -31 -32 -31 -74 0 -119 141 -161 232 -70 32 32
36 66 13 110 -21 40 -63 60 -129 60 -44 0 -60 -5 -85 -26z"/>
<path d="M6303 3105 c-69 -19 -115 -43 -188 -98 -114 -86 -195 -188 -195 -244
0 -37 46 -78 163 -149 183 -110 208 -128 353 -244 147 -118 203 -150 299 -175
142 -36 343 4 404 81 43 55 23 108 -84 224 -84 91 -150 187 -235 344 -32 57
-76 120 -106 151 -104 105 -266 149 -411 110z m292 -89 c69 -31 130 -95 185
-193 77 -139 133 -226 208 -325 83 -110 94 -145 62 -196 -42 -68 -186 -100
-309 -68 -83 21 -146 58 -284 165 -62 47 -150 113 -197 145 -182 126 -227 199
-185 299 69 165 340 256 520 173z"/>
<path d="M6327 3020 c-126 -32 -226 -120 -251 -223 -15 -63 49 -145 184 -237
36 -24 130 -93 209 -153 155 -118 214 -149 309 -167 72 -13 172 1 220 30 43
26 66 74 54 109 -5 15 -46 76 -91 136 -79 104 -116 163 -194 305 -49 89 -95
140 -158 175 -48 26 -65 30 -149 32 -52 1 -112 -2 -133 -7z m259 -95 c60 -38
127 -119 179 -221 22 -43 64 -120 93 -171 70 -122 75 -152 33 -194 -30 -30
-34 -31 -100 -27 -91 5 -157 39 -346 178 -174 129 -209 161 -236 213 -24 45
-19 81 17 144 43 75 126 113 235 110 64 -2 83 -6 125 -32z"/>
<path d="M6360 2934 c-117 -42 -180 -148 -136 -232 22 -42 88 -100 239 -210
153 -112 239 -159 309 -168 136 -18 164 49 81 193 -27 46 -72 128 -102 184
-62 115 -125 191 -185 221 -54 28 -147 33 -206 12z m185 -83 c72 -32 125 -108
164 -235 26 -85 26 -118 2 -140 -25 -22 -63 -15 -145 26 -115 57 -213 135
-243 192 -18 35 -19 85 -3 116 28 53 150 76 225 41z"/>
<path d="M6395 2845 c-70 -25 -94 -81 -61 -143 45 -85 258 -222 346 -222 39 0
45 24 25 102 -37 143 -110 244 -192 267 -49 14 -69 13 -118 -4z"/>
<path d="M5152 2819 c-169 -20 -326 -84 -418 -171 -69 -65 -118 -148 -178
-303 -101 -258 -172 -384 -262 -463 -83 -74 -242 -142 -643 -278 -192 -64
-234 -114 -148 -173 99 -68 289 -98 457 -72 142 22 200 63 319 224 154 208
227 244 567 281 165 18 230 39 297 97 27 23 117 128 201 233 246 308 325 425
326 482 0 35 -70 90 -144 113 -58 18 -240 43 -285 40 -9 -1 -49 -5 -89 -10z
m221 -49 c46 -14 80 -33 114 -64 48 -44 48 -44 48 -107 0 -55 -6 -74 -38 -133
-58 -106 -171 -252 -263 -343 -64 -63 -103 -91 -166 -122 -125 -62 -189 -75
-360 -76 l-147 0 -28 28 c-24 23 -28 35 -27 80 1 66 91 342 146 450 51 99 133
184 217 227 151 76 368 102 504 60z"/>
<path d="M5080 2765 c-215 -46 -330 -125 -414 -285 -49 -92 -146 -393 -146
-451 0 -36 5 -50 26 -70 25 -23 31 -24 157 -23 156 2 263 25 372 82 172 90
446 441 449 576 1 23 -5 55 -13 69 -17 33 -72 70 -137 92 -65 23 -212 28 -294
10z m235 -77 c28 -14 63 -40 80 -58 26 -27 30 -38 30 -89 0 -94 -46 -174 -174
-302 -152 -152 -287 -219 -440 -219 -116 0 -181 55 -181 152 0 198 112 408
258 486 92 49 152 62 272 59 90 -3 112 -7 155 -29z"/>
<path d="M5016 2695 c-128 -33 -244 -123 -300 -233 -31 -61 -62 -175 -71 -257
-10 -105 37 -163 141 -172 73 -6 161 15 264 64 62 30 95 56 186 147 128 128
174 204 174 288 0 78 -18 101 -109 145 -67 32 -195 40 -285 18z m238 -57 c54
-30 90 -96 81 -151 -19 -129 -180 -295 -343 -354 -80 -29 -165 -31 -209 -3
-54 33 -68 64 -67 150 5 233 198 402 438 384 35 -2 75 -13 100 -26z"/>
<path d="M4977 2626 c-37 -14 -84 -36 -103 -51 -86 -66 -144 -191 -144 -312 0
-60 2 -67 33 -98 41 -41 89 -51 163 -36 91 18 179 66 260 143 156 149 178 301
51 358 -62 28 -173 26 -260 -4z m188 -70 c14 -9 32 -30 40 -46 62 -119 -166
-320 -316 -280 -51 14 -73 48 -71 110 1 58 21 101 71 153 83 88 198 114 276
63z"/>
<path d="M4985 2546 c-128 -61 -198 -214 -129 -283 23 -23 31 -25 88 -21 101
8 195 69 235 152 36 74 23 129 -39 161 -42 22 -98 18 -155 -9z"/>
<path d="M4695 1726 c-132 -32 -193 -83 -315 -262 -132 -192 -178 -218 -414
-235 -305 -21 -447 -48 -540 -103 -151 -88 3 -264 309 -351 183 -52 332 -68
396 -41 49 21 80 58 145 176 99 181 128 208 311 285 207 87 316 183 364 322
27 80 26 147 -5 178 -44 44 -147 56 -251 31z m106 -109 c39 -30 50 -92 25
-150 -17 -41 -95 -113 -149 -138 -55 -25 -123 -24 -164 1 -28 17 -33 26 -33
57 1 81 71 180 155 219 55 26 139 32 166 11z m-675 -495 c43 -23 58 -52 58
-105 -1 -63 -22 -107 -69 -142 -73 -57 -178 -69 -290 -34 -53 16 -78 31 -122
74 -49 47 -55 57 -49 82 22 88 98 129 261 142 88 7 181 -1 211 -17z"/>
<path d="M4680 1611 c-98 -32 -170 -113 -186 -209 -6 -38 -4 -42 27 -61 45
-27 92 -26 156 3 159 74 209 260 72 272 -24 2 -55 0 -69 -5z"/>
<path d="M3834 1115 c-75 -16 -116 -36 -143 -71 -33 -42 -27 -78 20 -124 55
-54 134 -82 229 -83 146 0 230 67 230 186 0 50 -22 77 -79 96 -45 15 -181 13
-257 -4z"/>
<path d="M3575 646 c-80 -30 -95 -86 -58 -216 79 -278 303 -381 439 -203 73
96 102 250 58 310 -61 82 -331 149 -439 109z m261 -106 c39 -15 84 -62 93 -98
17 -64 -15 -147 -72 -187 -45 -31 -127 -14 -174 37 -29 31 -63 106 -63 141 -1
96 104 148 216 107z"/>
<path d="M3690 527 c-14 -7 -33 -29 -43 -49 -15 -30 -16 -44 -8 -76 35 -128
155 -190 230 -118 80 77 61 201 -36 242 -40 17 -110 18 -143 1z"/>
<path d="M614 5214 c-14 -56 2 -172 32 -231 25 -50 38 -62 88 -87 54 -28 66
-30 219 -37 187 -8 265 -25 360 -77 136 -76 232 -172 393 -398 66 -90 84 -124
103 -190 12 -43 26 -88 31 -99 5 -11 14 -60 20 -110 14 -107 41 -175 86 -214
47 -42 104 -48 228 -26 144 26 240 24 309 -8 121 -55 187 -152 195 -286 6
-105 -11 -160 -114 -363 -46 -91 -87 -184 -92 -205 -14 -67 3 -110 83 -213
105 -133 130 -200 128 -340 0 -64 -12 -164 -28 -255 -53 -292 -13 -416 161
-503 111 -56 300 -80 364 -47 36 18 45 48 36 118 -16 131 -18 200 -6 259 17
87 121 373 180 493 64 133 124 203 250 297 197 147 265 233 277 349 3 37 -3
100 -22 199 -40 213 -28 288 59 373 75 73 169 113 474 207 133 40 178 76 175
142 0 25 -17 79 -38 128 -49 111 -59 215 -26 282 29 61 90 117 216 201 183
121 204 168 165 370 -28 144 -24 192 19 253 l32 44 -138 0 -139 0 -11 -43
c-16 -57 -61 -117 -130 -172 -63 -50 -275 -161 -418 -220 -234 -96 -326 -163
-464 -333 -110 -136 -211 -208 -360 -257 -111 -36 -249 -6 -434 96 -59 32
-114 59 -123 59 -8 0 -48 -31 -89 -69 -47 -44 -103 -84 -149 -107 -69 -33 -80
-36 -144 -32 -57 3 -76 9 -106 31 -90 69 -89 183 2 275 87 86 194 103 332 52
101 -37 132 -38 159 -4 27 34 45 121 37 175 -18 121 -93 173 -271 189 -254 23
-346 46 -464 115 -64 38 -183 158 -208 211 l-17 34 -140 0 -141 0 81 -46 c45
-25 103 -63 129 -85 26 -21 51 -39 56 -39 4 0 32 -19 61 -43 62 -50 137 -96
263 -162 92 -48 159 -103 168 -136 8 -31 -33 -98 -123 -201 -59 -67 -101 -127
-136 -195 -44 -84 -55 -98 -78 -101 -54 -7 -116 54 -353 348 -167 208 -312
296 -524 320 -234 27 -295 43 -353 98 -45 42 -76 118 -76 185 0 54 -1 57 -25
57 -18 0 -26 -7 -31 -26z m4163 -204 c48 -29 83 -89 90 -152 11 -107 -30 -168
-178 -270 -49 -33 -115 -88 -148 -124 -90 -96 -98 -145 -55 -343 l25 -120 -20
-45 c-26 -61 -73 -89 -279 -170 -253 -99 -340 -168 -378 -295 -19 -63 -15
-108 22 -249 20 -73 25 -113 22 -171 -7 -143 -62 -213 -289 -363 -80 -53 -162
-115 -182 -137 -43 -47 -81 -120 -138 -263 -46 -116 -121 -268 -183 -373 -99
-169 -195 -208 -287 -116 -57 57 -62 89 -54 366 9 301 6 321 -82 490 l-68 130
1 95 c0 101 -5 82 96 343 29 74 32 93 32 192 1 105 0 113 -33 180 -64 132
-248 285 -343 285 -18 0 -68 -11 -111 -25 -98 -32 -153 -32 -198 -2 -51 34
-74 88 -72 170 2 77 21 117 56 117 12 0 64 -29 116 -65 175 -121 230 -122 397
-13 198 129 252 143 439 113 143 -23 273 -23 350 -1 123 36 170 70 340 241
229 231 254 249 482 341 164 67 211 90 319 156 157 95 246 118 311 78z"/>
<path d="M4640 5005 c-25 -8 -81 -35 -125 -61 -151 -88 -204 -115 -352 -175
-228 -93 -263 -116 -463 -318 -113 -114 -196 -188 -234 -210 -135 -80 -259
-96 -477 -62 -200 31 -254 19 -416 -91 -122 -81 -159 -98 -223 -98 -66 0 -120
24 -240 109 -40 28 -81 51 -91 51 -39 0 -54 -146 -21 -209 41 -82 108 -95 256
-47 104 34 129 30 232 -35 134 -85 232 -225 255 -364 15 -88 1 -159 -69 -342
-91 -236 -91 -286 -2 -458 89 -169 96 -199 91 -395 -9 -333 -7 -381 16 -432
43 -95 155 -108 229 -26 55 59 185 305 254 479 92 230 125 269 342 412 262
172 301 256 239 510 -35 145 -38 202 -15 270 20 59 91 139 168 188 32 21 128
66 215 99 184 72 235 100 262 143 24 40 24 79 -1 187 -23 99 -26 207 -7 253
22 52 113 143 208 208 159 109 203 180 179 287 -13 57 -46 104 -91 127 -34 18
-60 18 -119 0z m39 -140 c33 -16 41 -33 41 -80 0 -46 -38 -88 -149 -164 -134
-92 -175 -148 -197 -274 -4 -22 1 -93 12 -166 30 -216 16 -236 -262 -372 -205
-100 -284 -161 -331 -253 -40 -78 -40 -140 -4 -289 35 -146 37 -182 15 -257
-13 -43 -29 -67 -82 -120 -55 -53 -94 -79 -212 -140 -197 -102 -240 -145 -339
-338 -76 -148 -136 -227 -181 -237 -59 -14 -100 62 -100 185 0 101 -27 200
-91 330 -34 68 -68 142 -75 163 -21 61 -17 160 11 262 60 216 65 240 65 322 0
109 -11 153 -77 297 -30 66 -57 132 -60 148 -18 88 48 174 161 210 17 6 117
14 221 18 257 10 335 31 491 135 44 30 139 109 210 177 183 175 226 202 498
310 82 33 184 75 225 95 122 57 160 64 210 38z"/>
<path d="M4545 4846 c-16 -7 -57 -25 -90 -40 -33 -15 -127 -55 -210 -88 -252
-100 -309 -135 -464 -281 -162 -153 -241 -215 -337 -262 -110 -54 -206 -75
-353 -75 -167 -1 -251 -13 -317 -45 -61 -30 -89 -66 -99 -127 -6 -32 1 -54 40
-141 95 -208 98 -221 99 -342 1 -102 -3 -121 -44 -260 -37 -123 -45 -165 -45
-230 0 -79 1 -83 72 -230 89 -186 91 -193 103 -329 16 -179 27 -206 81 -206
41 0 97 70 175 222 107 208 148 248 361 357 185 95 262 171 283 279 10 56 5
93 -30 230 -45 178 -17 289 101 395 49 45 101 76 237 142 179 88 235 123 254
159 22 41 26 101 12 186 -28 173 -11 278 60 365 19 23 75 69 123 103 109 74
142 109 150 154 8 52 -21 78 -84 77 -27 0 -61 -6 -78 -13z m-311 -267 c35 -16
56 -67 56 -136 0 -32 7 -103 15 -157 19 -125 19 -227 1 -271 -23 -55 -87 -107
-213 -174 -220 -119 -305 -186 -354 -282 -36 -72 -36 -146 1 -300 46 -190 33
-247 -78 -351 -56 -52 -97 -75 -220 -123 -48 -18 -133 -56 -190 -83 -136 -67
-175 -73 -248 -37 -42 21 -67 43 -101 89 -106 142 -121 228 -77 441 38 186 38
311 0 440 -55 190 -61 221 -48 263 32 107 94 135 395 178 246 35 325 77 617
324 114 97 174 135 262 164 79 28 143 33 182 15z"/>
<path d="M4090 4544 c-107 -29 -172 -72 -375 -247 -200 -173 -315 -224 -595
-262 -165 -23 -241 -47 -278 -89 -42 -48 -46 -78 -22 -166 66 -242 73 -282 67
-380 -3 -52 -18 -151 -32 -220 -33 -155 -30 -225 15 -317 41 -82 110 -157 164
-178 54 -21 93 -12 226 54 52 26 138 64 191 85 143 54 222 115 269 206 20 38
15 125 -14 237 -46 181 -29 284 65 388 68 73 119 109 284 200 149 81 199 120
221 172 17 38 18 129 3 204 -5 30 -14 108 -18 173 -7 107 -10 121 -30 137 -27
22 -66 23 -141 3z m17 -150 c60 -38 103 -142 103 -248 -1 -122 -53 -185 -252
-303 -154 -92 -252 -183 -297 -277 -44 -91 -47 -131 -16 -280 32 -151 29 -197
-12 -264 -23 -38 -42 -54 -103 -85 -99 -49 -215 -79 -315 -80 -142 -1 -202 30
-252 131 -27 55 -28 61 -23 177 9 247 5 345 -19 460 -37 175 -29 230 43 292
44 40 119 67 276 103 204 46 271 79 507 246 81 59 160 112 175 120 65 34 139
37 185 8z"/>
<path d="M3958 4385 c-45 -17 -63 -28 -213 -136 -223 -160 -306 -199 -529
-249 -216 -49 -292 -100 -303 -203 -3 -24 6 -99 20 -172 30 -154 32 -189 22
-405 -7 -158 -7 -168 14 -215 30 -68 66 -103 125 -120 124 -37 352 5 474 87
84 57 101 145 61 321 -40 177 -13 271 117 407 54 56 101 92 181 139 202 120
255 173 269 272 13 93 -35 237 -90 270 -36 22 -95 24 -148 4z m61 -133 c59
-30 88 -117 61 -186 -17 -47 -85 -109 -205 -189 -186 -125 -278 -229 -326
-368 -19 -57 -20 -74 -13 -164 13 -162 11 -207 -14 -247 -32 -51 -99 -82 -189
-86 -85 -5 -132 9 -181 52 -52 45 -70 97 -87 246 -9 72 -27 184 -41 248 -56
255 -15 316 276 408 198 63 296 107 427 192 106 69 195 111 238 112 11 0 35
-8 54 -18z"/>
<path d="M3890 4236 c-36 -14 -126 -67 -214 -126 -66 -45 -190 -97 -366 -155
-173 -56 -207 -73 -248 -119 -57 -65 -59 -99 -23 -276 17 -85 35 -200 41 -255
11 -117 21 -156 52 -202 74 -109 323 -104 381 7 16 31 18 49 11 150 -10 155
-8 200 15 264 44 126 153 247 325 360 187 124 238 197 202 291 -10 25 -27 52
-39 60 -26 18 -89 18 -137 1z m-12 -158 c7 -7 12 -18 12 -26 0 -7 -69 -82
-153 -165 -161 -161 -212 -226 -317 -415 -74 -133 -102 -157 -147 -132 -87 48
-194 305 -169 403 3 14 18 40 33 57 52 62 138 102 328 151 70 18 147 45 185
66 126 68 201 88 228 61z"/>
<path d="M3760 4056 c-19 -8 -64 -30 -100 -49 -39 -22 -117 -50 -195 -71 -190
-50 -260 -81 -312 -137 -49 -53 -54 -104 -19 -205 50 -147 116 -244 165 -244
35 0 44 10 125 154 98 173 162 255 312 401 74 72 134 138 134 148 0 13 -8 17
-37 16 -21 0 -54 -6 -73 -13z"/>
<path d="M684 5215 c-15 -60 19 -156 73 -207 52 -50 123 -71 303 -88 261 -26
385 -102 605 -372 215 -263 276 -321 319 -305 9 4 30 36 46 72 38 84 79 144
153 224 71 77 117 146 117 177 0 36 -60 86 -172 143 -57 30 -132 73 -168 98
-89 60 -191 133 -231 164 -19 15 -73 48 -120 73 l-87 47 -101 -3 -100 -3 47
-38 c99 -80 142 -108 281 -182 298 -157 389 -224 411 -303 25 -94 -67 -212
-166 -212 -73 0 -136 53 -276 230 -97 123 -174 193 -235 214 -26 10 -102 21
-168 27 -209 17 -271 27 -323 53 -81 41 -132 116 -132 194 0 19 -5 22 -35 22
-29 0 -36 -4 -41 -25z"/>
<path d="M800 5197 c0 -58 37 -110 102 -143 51 -26 71 -29 338 -53 192 -17
244 -51 433 -287 101 -128 169 -184 219 -184 71 0 138 72 138 148 0 81 -81
145 -389 307 -146 76 -237 136 -319 211 l-50 44 -96 0 c-93 0 -96 -1 -86 -19
14 -28 13 -38 -10 -61 -31 -31 -85 -27 -121 9 -16 16 -29 39 -29 50 0 19 -6
21 -65 21 l-65 0 0 -43z"/>
<path d="M950 5217 c0 -44 68 -80 109 -57 23 12 28 49 9 68 -7 7 -36 12 -65
12 -49 0 -53 -2 -53 -23z"/>
<path d="M1887 5209 c83 -144 272 -256 471 -279 48 -5 128 -14 177 -19 115
-13 153 -24 203 -61 78 -57 110 -172 78 -282 -33 -115 -81 -131 -231 -77 -71
26 -97 31 -140 26 -191 -20 -292 -239 -142 -310 92 -44 215 -1 350 123 53 48
85 70 103 70 14 0 73 -27 132 -59 180 -101 308 -130 413 -96 83 27 185 83 240
132 27 25 87 91 134 148 122 148 215 213 447 309 152 63 337 159 406 211 66
51 115 115 128 168 6 27 6 27 -43 27 l-49 0 -12 -47 c-10 -35 -27 -61 -76
-109 -82 -79 -164 -127 -351 -205 -288 -118 -339 -153 -478 -327 -52 -65 -116
-137 -142 -160 -162 -143 -404 -140 -496 6 -38 61 -46 91 -65 252 -27 233 -79
351 -172 393 -41 19 -67 22 -207 23 -88 1 -186 7 -217 13 -159 33 -114 103 89
141 l98 18 -333 1 -333 1 18 -31z"/>
<path d="M2595 5235 c-5 -3 -63 -14 -129 -25 -147 -26 -234 -66 -195 -91 36
-23 98 -31 279 -38 182 -6 198 -9 240 -32 93 -51 138 -159 169 -406 26 -206
55 -267 146 -316 58 -32 197 -30 279 2 66 26 165 118 276 257 119 148 187 194
455 304 175 72 262 121 338 190 50 46 97 117 97 148 0 7 -15 12 -35 12 -25 0
-35 -4 -35 -15 0 -30 -39 -91 -87 -136 -67 -63 -168 -119 -308 -173 -256 -98
-350 -161 -475 -318 -146 -183 -234 -248 -334 -248 -116 1 -195 75 -226 213
-18 82 -41 321 -34 362 14 89 68 142 178 175 185 56 265 84 316 111 l55 28
-39 1 c-21 0 -69 -11 -107 -25 -105 -37 -231 -58 -364 -59 -119 -1 -120 0
-219 42 -85 36 -109 42 -165 41 -36 0 -70 -2 -76 -4z"/>
<path d="M2845 5208 c60 -27 84 -32 176 -36 117 -5 263 14 364 47 l60 19 -335
1 -335 0 70 -31z"/>
<path d="M3504 5194 c-49 -24 -145 -59 -212 -78 -67 -20 -144 -47 -172 -61
-91 -46 -104 -110 -75 -355 20 -170 37 -225 89 -276 67 -68 147 -79 239 -35
64 31 110 73 196 179 100 125 193 211 276 257 36 21 134 64 217 97 173 67 252
111 321 177 48 46 68 74 82 119 6 22 5 23 -40 20 -45 -3 -48 -5 -60 -42 -18
-51 -94 -127 -164 -165 -31 -16 -123 -53 -206 -81 -242 -84 -312 -130 -441
-296 -115 -147 -200 -207 -270 -190 -40 10 -110 84 -123 131 -25 85 -36 212
-22 263 26 100 77 144 246 216 61 26 157 72 214 102 57 30 106 52 108 50 9 -9
-169 -101 -322 -166 -55 -23 -119 -55 -142 -71 -85 -59 -112 -147 -89 -292 25
-152 73 -217 161 -217 68 0 126 47 233 188 119 156 201 211 437 292 220 76
304 125 350 204 36 62 33 76 -14 76 -34 0 -40 -4 -49 -29 -16 -46 -76 -105
-142 -140 -37 -20 -120 -47 -216 -71 -202 -51 -252 -74 -323 -152 -182 -199
-213 -222 -269 -202 -61 22 -89 117 -58 198 23 61 77 107 172 145 143 58 205
93 288 159 44 36 87 71 95 78 11 10 -8 13 -105 12 l-119 0 -91 -44z"/>
<path d="M3777 5174 c-106 -88 -183 -137 -270 -170 -111 -42 -161 -69 -195
-108 -78 -89 -54 -241 38 -238 46 1 92 35 156 114 127 158 178 189 393 239
170 39 262 80 319 142 23 26 42 56 42 67 0 19 -6 20 -202 20 l-203 0 -78 -66z"/>
<path d="M5086 5209 c-63 -75 -78 -155 -52 -279 45 -211 11 -280 -199 -410
-162 -100 -215 -164 -215 -260 0 -113 132 -281 244 -311 33 -9 52 -8 101 6
129 35 212 115 337 323 130 216 175 251 443 347 88 31 189 74 225 95 85 50
170 135 205 208 37 74 46 182 20 233 -33 65 -53 79 -112 79 l-54 0 25 -33 c64
-83 77 -199 33 -289 -62 -127 -199 -213 -454 -287 -265 -77 -297 -101 -348
-261 -67 -210 -195 -331 -349 -331 -77 0 -128 19 -179 69 -83 79 -97 164 -43
256 31 53 74 83 244 171 82 42 144 81 156 97 25 36 23 82 -10 211 -45 172 -34
276 40 365 l28 32 -30 0 c-22 0 -38 -9 -56 -31z"/>
<path d="M5179 5202 c-75 -85 -87 -181 -45 -350 34 -139 38 -166 26 -198 -20
-52 -63 -85 -211 -160 -103 -52 -158 -86 -182 -113 -34 -38 -57 -92 -57 -137
0 -33 56 -111 101 -141 38 -25 52 -28 123 -28 70 0 87 4 127 27 87 51 150 143
198 291 13 37 37 89 54 115 42 61 110 95 304 151 256 74 390 157 443 273 37
82 21 191 -41 269 -28 35 -35 39 -76 39 l-45 0 32 -32 c71 -72 92 -186 50
-273 -62 -128 -297 -238 -510 -239 -134 -1 -200 43 -267 176 -38 77 -44 187
-13 249 27 52 69 109 81 109 5 0 -9 -23 -30 -51 -22 -29 -45 -72 -51 -96 -37
-129 64 -332 180 -363 60 -17 205 -7 300 20 294 84 404 288 250 463 -29 34
-37 37 -83 37 l-51 0 32 -23 c85 -63 123 -169 91 -254 -16 -42 -78 -101 -139
-133 -188 -95 -427 -52 -500 90 -50 97 -34 190 45 267 l53 51 -79 0 c-77 0
-79 0 -110 -36z m-105 -796 c88 -37 55 -170 -56 -227 -76 -39 -157 -18 -193
51 -52 100 127 227 249 176z"/>
<path d="M4919 4380 c-47 -25 -89 -75 -89 -105 0 -94 111 -133 202 -71 71 48
100 134 58 176 -27 27 -120 27 -171 0z"/>
<path d="M5359 5208 c-66 -45 -92 -88 -97 -158 -5 -72 11 -122 54 -170 56 -62
121 -85 239 -84 78 1 112 6 156 23 77 29 139 73 169 117 55 82 20 209 -75 274
l-44 30 -178 0 -179 0 -45 -32z m338 -29 c76 -37 124 -119 102 -177 -28 -74
-102 -114 -219 -119 -74 -4 -91 -1 -130 19 -65 33 -93 80 -86 141 3 26 14 61
26 77 60 84 199 110 307 59z"/>
<path d="M5498 5180 c-74 -22 -118 -80 -118 -156 0 -39 5 -51 33 -79 79 -79
253 -71 339 15 55 54 50 118 -14 177 -50 47 -161 67 -240 43z"/>
<path d="M6419 5212 c37 -52 98 -100 175 -137 103 -49 136 -78 136 -118 -1
-65 -97 -218 -296 -468 -122 -153 -170 -229 -194 -307 -38 -122 -23 -209 69
-386 74 -144 86 -202 69 -339 -11 -92 -11 -101 7 -135 17 -31 33 -42 100 -70
274 -115 323 -159 419 -381 64 -145 106 -203 237 -332 124 -122 149 -160 149
-229 0 -33 -7 -48 -40 -84 -69 -75 -210 -117 -394 -117 -177 0 -252 31 -421
171 -221 184 -379 268 -521 278 -62 4 -79 1 -129 -22 -72 -33 -175 -135 -308
-306 -157 -201 -202 -317 -151 -387 69 -93 220 -136 561 -157 197 -13 218 -16
269 -41 73 -36 105 -83 111 -168 5 -55 2 -71 -25 -129 -56 -118 -114 -166
-277 -224 -183 -65 -239 -108 -266 -203 -30 -103 -12 -212 70 -428 74 -196 94
-288 89 -400 l-5 -93 28 0 29 0 0 84 c0 128 -18 203 -120 491 -54 151 -65 266
-32 331 41 80 103 124 247 175 117 41 139 53 195 105 91 85 141 250 111 362
-7 23 -26 59 -44 79 -57 64 -92 73 -346 88 -250 15 -327 29 -417 79 -118 65
-147 157 -89 279 37 80 158 240 233 309 34 31 92 71 129 90 62 30 75 33 163
33 76 0 107 -5 153 -24 78 -31 209 -120 336 -230 158 -136 220 -160 407 -161
202 0 413 42 492 99 95 70 74 165 -64 287 -222 195 -263 251 -332 446 -64 182
-97 229 -216 318 -138 103 -166 138 -166 211 0 35 6 47 40 81 37 38 43 40 84
36 70 -8 129 -45 262 -165 157 -140 250 -202 427 -285 36 -17 37 -16 37 2 0
13 -28 39 -87 79 -163 110 -271 227 -314 342 -11 28 -33 77 -49 110 -50 99
-27 133 151 222 89 44 134 74 207 139 l92 83 0 48 c0 58 1 59 -106 -14 -123
-82 -150 -91 -304 -99 -197 -11 -235 -24 -390 -143 -34 -26 -73 -50 -86 -53
-44 -11 -94 6 -139 47 -59 55 -85 113 -85 191 1 95 31 153 180 338 42 52 106
136 143 186 81 112 173 198 253 241 33 18 132 53 219 78 87 25 193 60 237 76
l78 30 0 40 0 39 -62 -31 c-91 -46 -160 -67 -252 -79 -97 -12 -180 0 -210 30
-20 20 -20 20 1 63 11 24 44 69 73 100 l52 57 -51 0 c-36 0 -68 -8 -103 -26
-90 -46 -204 -45 -272 1 -31 21 -49 25 -107 25 l-70 0 20 -28z"/>
<path d="M6585 5224 c53 -40 156 -43 235 -6 l45 20 -150 1 c-135 0 -148 -1
-130 -15z"/>
<path d="M6978 5193 c-60 -62 -98 -120 -98 -149 0 -18 8 -25 38 -33 100 -28
259 -4 394 61 l88 41 0 64 0 63 -188 0 -188 0 -46 -47z"/>
<path d="M7328 4978 c-37 -16 -134 -46 -215 -69 -271 -73 -340 -122 -524 -364
-54 -71 -132 -173 -173 -226 -108 -141 -136 -231 -102 -327 29 -80 84 -132
154 -146 42 -7 76 9 162 79 112 91 152 104 346 115 164 9 188 17 332 112 l92
61 0 54 c0 29 -2 53 -5 53 -3 0 -51 -21 -107 -46 -150 -67 -226 -84 -408 -91
-179 -7 -257 8 -286 52 -20 30 -15 53 31 152 88 191 227 335 397 412 34 16
131 52 213 81 83 29 154 56 158 60 5 4 7 21 5 37 l-3 29 -67 -28z"/>
<path d="M7229 4865 c-213 -75 -305 -124 -394 -207 -84 -78 -149 -170 -201
-284 -46 -101 -44 -132 11 -159 35 -18 58 -20 195 -18 182 2 280 19 395 69 44
20 99 43 123 52 39 15 42 19 42 55 0 32 -3 37 -17 33 -10 -3 -72 -20 -138 -37
-199 -53 -378 -42 -415 25 -25 48 36 173 121 250 71 64 153 108 313 168 131
49 136 52 136 79 0 17 -5 29 -12 28 -7 -1 -79 -25 -159 -54z"/>
<path d="M7280 4804 c-277 -101 -416 -219 -436 -368 -6 -42 -5 -45 27 -62 24
-12 64 -19 131 -22 86 -4 112 0 247 34 l151 38 0 67 0 67 -45 6 c-24 4 -54 16
-67 26 -22 18 -22 20 -8 47 9 15 39 41 68 58 l52 30 0 58 c0 39 -4 57 -12 56
-7 0 -56 -16 -108 -35z"/>
<path d="M876 4744 c-94 -17 -189 -58 -217 -92 -16 -20 -19 -41 -19 -117 0
-176 -32 -230 -183 -305 -56 -28 -113 -61 -125 -73 -40 -37 -62 -92 -108 -271
-24 -94 -57 -221 -73 -283 -16 -62 -41 -178 -56 -259 -29 -160 -44 -211 -75
-254 -21 -29 -28 -110 -11 -110 19 0 63 70 81 129 10 32 24 114 30 182 16 185
31 255 97 469 68 221 125 297 269 359 171 74 206 118 254 311 28 113 50 157
96 202 99 94 273 109 422 37 210 -102 408 -393 441 -649 34 -266 58 -349 117
-419 72 -83 159 -101 313 -61 277 70 391 30 391 -138 0 -157 -105 -280 -330
-384 -159 -73 -169 -79 -211 -120 -78 -76 -100 -164 -56 -229 35 -53 94 -76
242 -95 208 -26 289 -69 335 -176 56 -131 11 -349 -97 -469 -45 -49 -81 -69
-128 -69 -52 0 -87 18 -205 104 -123 91 -243 158 -320 180 -30 8 -106 22 -169
31 -232 33 -281 63 -403 243 -128 187 -203 254 -329 293 -106 33 -307 21 -451
-27 -111 -37 -219 -147 -298 -304 -23 -47 -56 -104 -71 -127 -24 -35 -29 -52
-29 -102 0 -34 4 -61 9 -61 20 0 63 45 85 88 13 26 33 79 46 117 49 153 141
264 273 329 224 110 459 80 604 -77 56 -60 89 -121 129 -234 61 -171 64 -173
294 -184 214 -10 301 -28 419 -86 75 -36 110 -61 167 -118 89 -89 101 -120 68
-185 -31 -64 -52 -80 -217 -170 -238 -129 -420 -258 -521 -371 -53 -59 -99
-150 -115 -229 -16 -78 -42 -117 -88 -130 -21 -5 -119 -15 -218 -20 -99 -6
-209 -15 -245 -20 -36 -5 -123 -13 -195 -16 -185 -9 -324 12 -458 70 l-38 17
3 -28 c3 -24 11 -31 56 -46 116 -38 227 -49 527 -51 331 -3 321 -1 525 -96
151 -70 192 -82 290 -83 93 0 149 15 184 49 49 49 30 108 -69 215 -82 88 -100
124 -100 203 0 57 5 82 28 128 55 113 221 260 384 342 28 14 109 49 180 77
207 83 274 79 403 -26 71 -57 166 -129 311 -238 132 -98 162 -129 217 -224 48
-82 55 -115 41 -190 -21 -114 -61 -170 -194 -271 -189 -145 -233 -197 -333
-397 -33 -66 -78 -145 -101 -175 -38 -51 -40 -55 -21 -58 12 -2 28 2 36 9 15
12 67 99 164 271 54 97 138 188 215 233 33 20 110 52 172 71 138 43 158 62
197 190 15 49 39 117 53 152 35 89 28 116 -55 204 -49 52 -119 106 -269 205
-404 270 -440 335 -340 623 72 209 85 331 48 449 -42 136 -122 198 -310 245
-126 31 -171 60 -171 111 0 42 39 84 126 135 138 81 247 184 317 302 104 175
87 331 -45 403 -71 39 -151 43 -298 16 -188 -35 -249 -26 -316 44 -55 57 -80
127 -104 295 -11 75 -29 162 -39 191 -50 146 -167 324 -286 437 -164 156 -314
198 -549 156z"/>
<path d="M7344 4678 c-27 -18 -50 -42 -52 -52 -6 -27 24 -46 70 -46 l38 0 0
65 c0 36 -2 65 -4 65 -2 0 -26 -15 -52 -32z"/>
<path d="M945 4682 c-110 -38 -149 -90 -189 -247 -29 -117 -45 -157 -80 -203
-35 -48 -89 -85 -179 -122 -96 -41 -159 -95 -196 -169 -34 -67 -114 -314 -136
-421 -9 -41 -20 -124 -26 -185 -19 -215 -41 -287 -103 -347 -33 -32 -36 -40
-36 -92 0 -61 2 -62 62 -46 44 13 93 65 108 117 6 21 15 148 20 283 9 266 18
318 80 475 67 171 136 241 269 280 131 39 187 70 218 123 15 25 45 108 68 186
23 78 52 163 65 190 101 201 383 156 574 -93 107 -139 155 -273 181 -503 9
-79 24 -177 35 -219 36 -147 116 -265 212 -313 75 -38 122 -35 232 16 151 69
246 56 246 -32 0 -85 -81 -150 -255 -205 -114 -35 -118 -38 -184 -103 -158
-159 -212 -382 -118 -489 51 -59 98 -73 265 -83 151 -10 186 -16 238 -43 166
-87 143 -375 -36 -428 -68 -20 -131 1 -277 93 -199 126 -246 147 -391 175
-180 35 -235 64 -341 176 -262 277 -293 301 -436 338 -99 26 -165 25 -482 -11
-145 -16 -163 -33 -286 -257 l-67 -122 0 -83 c1 -77 2 -82 16 -63 9 11 37 63
64 115 80 158 169 259 278 314 46 23 190 53 292 61 101 8 201 -10 281 -51 72
-36 169 -137 252 -262 112 -170 161 -205 322 -231 39 -6 113 -18 165 -26 136
-22 265 -89 456 -235 70 -54 128 -75 176 -65 76 17 172 154 199 283 16 80 7
197 -19 249 -47 90 -115 125 -287 148 -66 8 -143 22 -172 30 -64 19 -117 67
-133 122 -17 57 5 115 70 186 49 54 68 65 230 140 204 95 301 201 317 347 4
44 1 67 -14 101 -39 88 -125 99 -353 48 -102 -23 -149 -30 -183 -25 -93 14
-177 96 -218 210 -10 29 -29 132 -43 229 -23 158 -30 185 -72 281 -25 59 -63
133 -84 164 -52 81 -151 184 -222 232 -113 75 -263 100 -373 62z"/>
<path d="M1035 4609 c-54 -12 -108 -58 -133 -112 -11 -24 -39 -106 -62 -182
-23 -77 -50 -155 -60 -176 -33 -63 -92 -105 -183 -129 -114 -31 -139 -43 -191
-91 -57 -51 -95 -117 -136 -234 -54 -154 -61 -203 -69 -460 -8 -255 -15 -291
-64 -344 -26 -28 -76 -51 -112 -51 l-25 0 0 -195 c0 -107 2 -195 4 -195 3 0
30 48 62 108 120 224 134 233 394 258 405 38 506 2 739 -259 164 -185 219
-220 397 -252 161 -29 199 -46 414 -182 120 -76 160 -93 222 -93 54 0 91 15
125 52 82 87 72 270 -17 336 -42 31 -132 50 -292 61 -114 8 -144 13 -179 33
-157 87 -155 291 4 505 65 87 123 127 242 164 126 39 164 59 203 104 40 45 50
81 31 114 -14 24 -21 26 -80 26 -53 -1 -79 -7 -149 -40 -138 -63 -221 -49
-321 55 -93 99 -139 223 -164 445 -9 77 -24 177 -35 223 -59 247 -242 465
-429 508 -63 15 -79 16 -136 3z m210 -83 c63 -30 131 -89 190 -169 94 -124
131 -223 145 -386 31 -346 35 -364 149 -586 60 -117 66 -136 69 -200 3 -61 -1
-83 -33 -170 -90 -247 -96 -266 -104 -385 -5 -72 -14 -127 -24 -147 -30 -58
-126 -70 -217 -27 -63 29 -110 66 -235 184 -133 126 -216 182 -310 210 -22 6
-128 15 -235 19 -163 7 -203 11 -241 28 -87 39 -118 109 -145 322 -30 242 23
459 145 594 55 61 106 79 243 87 128 6 156 17 190 76 16 27 22 57 63 279 26
144 77 234 154 275 52 27 133 26 196 -4z m1008 -2175 c46 -28 67 -67 67 -122
0 -33 -6 -47 -34 -75 -28 -28 -42 -34 -76 -34 -24 0 -60 5 -81 12 -48 14 -146
92 -172 136 -20 33 -20 34 0 60 34 45 59 53 163 50 79 -3 102 -8 133 -27z"/>
<path d="M1065 4522 c-92 -43 -132 -125 -171 -349 -44 -257 -65 -280 -254
-287 -145 -5 -198 -29 -259 -116 -90 -128 -127 -276 -118 -465 14 -273 57
-377 164 -404 21 -5 115 -12 210 -15 289 -11 350 -39 594 -271 122 -116 205
-166 277 -168 112 -3 129 21 141 191 9 121 8 118 107 392 53 143 48 176 -55
382 -44 90 -88 190 -96 223 -9 33 -22 143 -30 245 -20 245 -42 316 -140 455
-117 165 -261 238 -370 187z m184 -104 c67 -32 180 -150 218 -228 43 -90 53
-146 63 -360 10 -213 10 -210 78 -390 86 -229 88 -291 17 -525 -43 -140 -73
-202 -120 -248 -78 -76 -139 -59 -327 89 -179 142 -268 179 -465 194 -152 12
-218 30 -272 77 -71 60 -131 227 -131 360 0 66 24 172 50 222 26 52 85 118
121 137 41 21 123 17 218 -11 47 -14 102 -25 123 -25 117 0 157 95 158 365 0
288 105 421 269 343z"/>
<path d="M1096 4379 c-62 -54 -77 -115 -86 -342 -7 -190 -9 -200 -36 -255 -53
-106 -124 -125 -284 -77 -101 30 -164 32 -206 6 -100 -61 -160 -244 -133 -404
25 -154 70 -238 147 -280 58 -31 76 -34 227 -46 75 -6 146 -18 189 -32 80 -26
205 -102 309 -187 92 -76 141 -102 193 -102 36 0 47 5 74 37 43 48 74 120 116
268 27 94 35 138 35 203 0 86 2 78 -101 366 -30 83 -33 103 -41 280 -10 202
-20 273 -49 340 -27 62 -105 161 -158 199 -95 67 -142 74 -196 26z m182 -123
c42 -22 78 -66 109 -131 28 -60 28 -61 28 -270 l0 -210 44 -120 c78 -217 83
-238 78 -360 -4 -136 -29 -208 -93 -271 -75 -76 -123 -72 -260 22 -176 120
-247 149 -423 169 -192 23 -245 55 -305 185 -49 106 -27 245 46 290 47 28 83
25 195 -16 129 -48 196 -50 272 -9 60 33 91 67 126 134 35 71 38 105 20 257
-24 197 -11 288 47 328 28 20 80 20 116 2z"/>
<path d="M1167 4240 c-51 -40 -54 -82 -31 -412 6 -82 5 -90 -23 -151 -37 -77
-89 -131 -157 -163 -67 -31 -132 -31 -221 2 -151 56 -168 59 -211 38 -57 -28
-79 -73 -78 -164 0 -64 5 -84 31 -135 55 -107 110 -138 273 -154 167 -17 284
-62 420 -161 120 -88 176 -104 231 -67 85 57 137 199 126 347 -4 60 -18 115
-63 241 l-58 164 -2 207 c-2 236 -13 290 -71 358 -60 70 -118 87 -166 50z
m154 -786 c11 -10 32 -44 49 -77 25 -50 30 -72 30 -130 0 -99 -29 -147 -102
-171 -10 -3 -41 2 -69 10 -40 12 -66 30 -110 74 -32 31 -61 70 -65 85 -11 43
14 103 63 156 79 85 149 103 204 53z"/>
<path d="M1205 3458 c-94 -53 -157 -155 -134 -216 15 -39 88 -111 134 -133 49
-23 103 -24 132 -4 58 41 68 176 19 272 -41 82 -97 112 -151 81z"/>
<path d="M2013 2359 c-38 -11 -57 -41 -49 -74 7 -29 92 -106 143 -131 21 -10
62 -18 90 -18 44 -1 57 3 79 25 62 63 32 159 -61 191 -54 19 -151 22 -202 7z"/>
<path d="M0 4174 c0 -28 9 -46 34 -75 41 -44 66 -120 66 -197 0 -69 -31 -221
-70 -340 -23 -71 -30 -110 -29 -165 l1 -72 15 65 c8 36 34 133 58 215 49 174
60 240 60 385 0 85 -4 111 -18 133 -18 27 -92 87 -109 87 -4 0 -8 -16 -8 -36z"/>
<path d="M0 4067 c0 -32 7 -71 15 -87 25 -48 29 -155 9 -240 -9 -41 -19 -106
-20 -145 l-4 -70 16 40 c8 22 27 87 41 145 45 184 34 304 -36 390 l-21 25 0
-58z"/>
<path d="M7338 4023 c-103 -93 -144 -122 -251 -174 -110 -53 -147 -84 -147
-124 0 -20 44 -126 103 -245 29 -60 173 -203 270 -268 43 -28 80 -52 82 -52 3
0 5 13 5 28 0 23 -13 39 -65 80 -78 63 -139 137 -173 211 -20 43 -24 63 -19
107 8 75 42 132 158 258 l99 109 0 59 c0 32 -2 58 -5 58 -3 0 -28 -21 -57 -47z"/>
<path d="M2 3840 c0 -82 3 -125 8 -110 11 34 11 200 0 225 -5 12 -8 -31 -8
-115z"/>
<path d="M7305 3830 c-116 -129 -147 -182 -148 -257 -1 -45 5 -70 28 -113 27
-54 149 -186 193 -209 20 -11 22 -10 22 15 0 19 -15 43 -49 79 -72 76 -95 126
-95 205 0 76 25 132 99 223 43 53 46 60 43 107 l-3 50 -90 -100z"/>
<path d="M7353 3750 c-58 -77 -86 -144 -85 -203 1 -61 38 -141 88 -192 l39
-40 3 49 c2 28 -3 65 -12 87 -20 50 -20 128 -1 177 11 26 15 63 13 108 l-3 69
-42 -55z"/>
<path d="M7386 3588 c-8 -32 -6 -89 4 -113 6 -14 9 5 9 58 1 79 -2 93 -13 55z"/>
<path d="M6650 3553 c-40 -13 -61 -29 -76 -61 -36 -76 -1 -132 152 -242 115
-84 152 -138 220 -328 73 -200 105 -246 276 -391 95 -81 154 -146 171 -191 3
-8 6 17 6 57 l1 72 -119 91 c-146 111 -174 142 -223 247 -30 65 -40 99 -45
160 -5 75 -4 80 22 111 24 29 32 32 83 32 40 0 90 -12 170 -39 l112 -39 0 27
c0 23 -10 31 -92 71 -139 69 -256 148 -364 250 -143 134 -240 191 -294 173z"/>
<path d="M7058 3090 c-51 -32 -41 -172 23 -299 43 -86 82 -127 219 -231 l95
-72 3 38 c2 26 -1 40 -12 46 -52 29 -179 135 -205 170 -67 90 -76 174 -26 224
30 30 97 32 184 5 l61 -19 0 33 c0 32 -1 33 -102 69 -110 38 -212 54 -240 36z"/>
<path d="M7166 2957 c-32 -32 -35 -99 -9 -155 22 -48 102 -127 181 -180 l62
-43 0 179 0 179 -52 17 c-29 10 -76 20 -105 23 -46 5 -54 3 -77 -20z"/>
<path d="M598 2670 c-72 -12 -170 -47 -219 -79 -113 -71 -173 -150 -225 -296
-45 -126 -77 -181 -120 -207 -33 -19 -34 -22 -34 -79 0 -46 3 -59 15 -59 9 0
106 -47 218 -104 178 -92 504 -238 626 -281 55 -19 124 -19 160 -1 41 21 77
74 132 193 67 142 100 188 171 233 134 87 336 92 496 11 72 -36 118 -80 151
-145 22 -42 23 -50 12 -89 -15 -50 -82 -118 -162 -163 -170 -98 -359 -200
-462 -251 -65 -31 -137 -73 -159 -92 -23 -19 -69 -78 -103 -131 -97 -150 -176
-204 -367 -254 -266 -69 -491 -58 -663 33 -27 14 -53 27 -57 29 -14 6 -9 -45
5 -56 31 -26 197 -71 301 -82 110 -11 143 -10 386 15 74 8 191 17 260 20 158
7 216 20 236 51 9 12 24 57 35 100 34 135 93 219 237 335 101 82 240 172 382
249 175 95 205 117 231 171 30 66 21 90 -69 179 -136 133 -255 175 -542 191
-263 15 -277 23 -339 202 -37 110 -70 167 -134 235 -99 104 -243 148 -399 122z
m234 -77 c62 -22 131 -81 161 -137 17 -32 22 -58 22 -125 l0 -83 -48 -44 c-57
-51 -121 -74 -282 -99 -137 -22 -274 -17 -329 10 -22 11 -54 37 -70 58 -27 34
-31 46 -30 100 2 160 136 292 339 337 58 13 179 4 237 -17z m151 -574 c69 -19
92 -86 62 -185 -44 -148 -173 -198 -352 -135 -101 35 -164 71 -220 127 -96 97
-24 164 207 193 96 12 260 12 303 0z"/>
<path d="M551 2585 c-174 -49 -291 -188 -279 -333 4 -49 9 -59 45 -93 58 -53
123 -66 273 -50 222 22 348 62 392 124 18 26 23 45 23 97 -1 110 -54 193 -154
241 -60 29 -219 36 -300 14z m246 -59 c71 -34 113 -92 113 -157 0 -42 -5 -55
-36 -89 -111 -122 -382 -148 -473 -45 -25 29 -31 44 -31 83 0 163 256 287 427
208z"/>
<path d="M586 2525 c-118 -34 -201 -118 -201 -205 0 -88 69 -134 200 -134 148
1 295 76 311 159 12 66 -28 131 -104 169 -45 23 -146 29 -206 11z"/>
<path d="M780 2014 c-215 -14 -340 -57 -340 -115 0 -26 52 -82 111 -120 64
-40 231 -99 284 -99 52 0 121 35 156 80 40 50 62 140 46 188 -7 22 -22 42 -38
49 -29 14 -136 22 -219 17z"/>
<path d="M5848 2486 c-112 -30 -251 -152 -361 -317 -64 -97 -87 -153 -87 -213
0 -137 202 -226 515 -226 132 0 253 -18 300 -43 90 -50 138 -165 116 -276 -16
-78 -62 -172 -111 -225 -45 -49 -113 -86 -242 -131 -97 -34 -175 -88 -202
-140 -17 -32 -21 -57 -20 -120 1 -72 9 -104 77 -305 79 -236 104 -354 93 -442
l-7 -48 41 0 40 0 -6 77 c-9 123 -40 261 -97 431 -46 139 -52 167 -52 243 0
74 3 90 24 120 36 53 92 87 202 124 120 41 179 73 213 118 72 95 130 388 96
493 -24 75 -72 121 -154 146 -17 5 -137 13 -266 18 -198 6 -244 11 -293 28
-129 47 -195 127 -184 223 9 76 70 181 157 270 145 148 292 189 469 128 85
-29 146 -74 276 -199 173 -167 226 -187 465 -177 153 7 419 40 498 63 l52 15
0 67 0 67 -24 -35 c-47 -70 -149 -106 -381 -136 -206 -26 -347 -8 -451 59 -21
14 -79 60 -129 102 -257 222 -405 285 -567 241z"/>
<path d="M5871 2414 c-86 -23 -148 -63 -226 -146 -158 -168 -186 -316 -75
-397 89 -64 132 -73 390 -82 129 -4 250 -12 267 -17 90 -28 147 -83 173 -166
28 -86 -12 -340 -71 -457 -38 -77 -107 -124 -244 -169 -104 -34 -160 -65 -192
-107 -26 -33 -28 -44 -28 -122 0 -76 6 -103 52 -243 54 -163 93 -327 93 -395
0 -21 3 -55 6 -76 6 -31 11 -37 31 -37 24 0 24 1 18 73 -13 144 -36 276 -69
398 -67 243 -66 282 8 355 45 46 93 64 171 64 70 0 111 -27 124 -82 6 -24 16
-57 21 -74 6 -17 10 -40 10 -51 0 -43 53 -203 110 -330 72 -159 83 -201 78
-287 l-3 -66 28 0 c26 0 27 2 27 53 0 73 -21 148 -85 308 -30 74 -55 143 -55
151 0 9 -7 33 -16 54 -38 90 3 244 83 314 52 45 109 68 283 115 218 59 348
119 498 234 42 32 87 63 100 70 18 9 22 20 22 57 l0 45 -37 -21 c-21 -11 -81
-57 -133 -102 -118 -100 -223 -170 -298 -199 -110 -41 -281 -79 -359 -79 -157
0 -175 43 -133 322 24 158 25 241 5 325 -19 83 -50 128 -105 156 -43 21 -54
22 -270 19 -254 -4 -342 8 -419 56 -129 79 -111 233 43 387 122 121 203 145
370 110 119 -25 181 -74 372 -291 46 -52 72 -73 102 -82 56 -17 192 -15 457 7
127 11 269 23 318 26 l87 7 0 30 c0 22 -4 29 -14 25 -92 -35 -379 -70 -581
-71 -232 -1 -242 3 -422 175 -112 107 -148 135 -216 169 -121 59 -198 71 -296
44z"/>
<path d="M5860 2366 c-86 -30 -208 -143 -251 -233 -13 -26 -25 -73 -27 -103
-3 -45 0 -61 20 -90 58 -85 151 -106 451 -102 240 3 279 -3 331 -48 85 -75
105 -226 65 -504 -28 -196 -24 -231 31 -259 48 -25 149 -18 305 22 149 38 253
90 365 181 144 119 197 159 224 171 24 11 26 17 26 70 l0 59 -57 -37 c-78 -49
-130 -91 -248 -203 -148 -140 -268 -196 -406 -188 -80 4 -114 24 -143 83 -18
36 -19 60 -17 314 2 297 5 314 57 363 68 64 245 92 576 93 l238 0 0 38 0 39
-47 -6 c-27 -3 -136 -13 -243 -21 -107 -9 -239 -20 -294 -25 -140 -14 -215
-12 -272 6 -60 20 -76 34 -176 156 -131 160 -215 211 -372 228 -108 11 -93 12
-136 -4z m263 -74 c148 -74 248 -240 191 -320 -36 -51 -134 -80 -301 -89 -165
-8 -235 9 -306 78 -48 46 -49 48 -42 91 20 122 97 214 218 259 74 28 159 21
240 -19z"/>
<path d="M5873 2293 c-59 -20 -141 -97 -169 -158 -57 -121 -8 -198 148 -231
112 -24 296 -7 398 37 59 26 78 63 61 126 -24 88 -100 170 -202 218 -63 29
-167 33 -236 8z m205 -65 c41 -12 88 -52 107 -89 51 -98 -35 -179 -195 -182
-84 -1 -147 21 -189 66 -20 22 -23 34 -19 71 14 119 147 180 296 134z"/>
<path d="M5883 2206 c-83 -39 -116 -115 -72 -170 68 -86 282 -89 354 -4 30 35
31 50 5 106 -39 85 -178 118 -287 68z"/>
<path d="M1488 2020 c-80 -13 -158 -52 -206 -104 -25 -27 -66 -97 -105 -178
-93 -193 -157 -243 -276 -217 -77 16 -472 188 -676 294 -235 122 -225 119
-225 57 l0 -50 88 -37 c48 -20 167 -63 266 -96 198 -65 433 -174 511 -236 29
-22 62 -62 79 -92 25 -47 28 -61 23 -112 -14 -152 -144 -280 -342 -334 -83
-22 -254 -30 -342 -16 -89 16 -179 57 -238 112 l-45 42 0 -35 c0 -30 6 -37 53
-66 164 -99 390 -116 657 -48 199 51 259 92 364 249 85 129 111 150 277 233
157 78 464 249 522 291 48 36 64 57 77 102 9 32 -25 103 -67 143 -81 76 -254
119 -395 98z m245 -62 c51 -15 123 -80 137 -123 10 -30 9 -41 -10 -80 -27 -57
-83 -97 -237 -174 -205 -102 -298 -115 -355 -52 -32 36 -35 69 -13 154 58 225
258 340 478 275z"/>
<path d="M1494 1939 c-128 -40 -223 -168 -232 -312 -4 -68 -3 -73 22 -97 22
-20 37 -24 79 -23 29 0 75 9 102 18 69 24 253 116 310 155 209 144 -10 345
-281 259z m186 -111 c47 -50 -38 -138 -134 -138 -65 0 -87 55 -41 104 52 56
139 73 175 34z"/>
<path d="M1589 1831 c-45 -14 -68 -31 -84 -61 -28 -54 10 -83 82 -60 81 26
122 99 67 120 -29 11 -29 11 -65 1z"/>
<path d="M6974 1940 c-270 -25 -365 -52 -406 -118 -22 -36 -23 -47 -26 -292
-2 -140 0 -275 3 -299 19 -126 171 -156 353 -71 75 35 117 68 253 196 52 50
130 112 172 139 l77 48 0 72 0 72 -58 -56 c-32 -31 -101 -93 -153 -139 -52
-45 -133 -118 -181 -161 -108 -97 -163 -126 -240 -126 -67 0 -101 21 -132 81
-19 35 -21 56 -21 229 0 180 1 193 24 238 30 61 84 101 175 130 60 19 94 22
221 22 189 0 280 -21 343 -78 l22 -20 0 60 c0 45 -4 62 -15 67 -29 11 -310 15
-411 6z"/>
<path d="M6873 1865 c-134 -29 -193 -73 -219 -164 -23 -77 -15 -349 11 -405
26 -54 71 -72 141 -57 66 15 117 52 262 188 65 60 152 138 196 173 111 89 138
144 101 197 -46 66 -325 104 -492 68z m265 -51 c114 -47 105 -119 -36 -262
-148 -149 -278 -207 -337 -148 -34 35 -59 126 -53 201 13 161 127 242 321 229
38 -2 85 -11 105 -20z"/>
<path d="M6890 1811 c-111 -34 -163 -109 -163 -236 0 -84 28 -159 67 -177 68
-30 258 93 363 236 67 90 57 139 -34 172 -41 14 -191 17 -233 5z"/>
<path d="M0 1677 l0 -132 25 31 c35 44 93 58 213 51 240 -14 506 -145 572
-282 14 -28 22 -65 22 -99 1 -134 -108 -237 -299 -280 -269 -60 -494 62 -523
284 -6 45 -8 35 -9 -61 l-1 -116 49 -46 c95 -89 192 -121 366 -121 193 0 345
52 447 154 46 47 60 68 77 124 12 38 21 78 21 90 0 38 -50 124 -93 162 -67 58
-321 176 -517 240 -96 31 -214 74 -262 95 l-88 38 0 -132z"/>
<path d="M5237 1646 c-26 -7 -57 -21 -68 -32 -12 -10 -61 -78 -109 -149 -109
-163 -169 -219 -356 -331 -81 -49 -170 -110 -199 -136 -93 -84 -144 -216 -116
-301 16 -48 72 -95 227 -191 70 -44 160 -106 200 -138 79 -63 154 -153 154
-186 0 -38 -50 -82 -154 -132 l-101 -49 492 -1 491 0 18 45 c30 79 16 189 -50
393 -65 203 -96 346 -96 446 0 57 5 83 28 131 46 97 99 135 304 214 125 49
193 97 219 155 23 50 24 78 4 116 -31 59 -113 83 -350 100 -79 6 -185 21 -245
35 -116 27 -217 31 -293 11z m443 -106 c214 -37 237 -43 266 -71 57 -53 16
-101 -160 -188 -146 -73 -209 -130 -246 -226 -31 -80 -31 -221 -1 -395 42
-238 38 -425 -8 -450 -21 -11 -77 6 -185 54 -32 15 -116 40 -185 55 -185 42
-253 73 -466 214 -99 65 -169 127 -191 169 -21 40 -18 124 7 174 28 58 119
140 231 210 182 111 271 189 371 319 108 142 176 179 312 170 44 -3 159 -19
255 -35z"/>
<path d="M5290 1549 c-55 -22 -103 -66 -175 -159 -107 -141 -149 -176 -392
-333 -159 -103 -222 -179 -223 -270 0 -87 41 -136 214 -251 180 -120 269 -161
426 -197 74 -17 178 -49 230 -71 125 -53 154 -58 172 -27 22 40 15 222 -17
419 -36 229 -33 329 14 424 42 86 110 146 230 203 128 62 170 89 181 119 19
49 -11 73 -120 93 -298 57 -480 74 -540 50z m197 -151 c32 -30 29 -73 -10
-138 -74 -122 -76 -142 -52 -406 21 -225 6 -302 -67 -358 -43 -32 -98 -46
-179 -46 -231 0 -550 195 -549 337 1 38 31 102 69 145 18 20 112 91 209 157
97 66 204 143 237 170 201 168 278 199 342 139z"/>
<path d="M5334 1385 c-27 -13 -74 -46 -104 -73 -79 -69 -157 -126 -314 -232
-199 -132 -248 -182 -270 -274 -11 -44 34 -126 95 -175 66 -53 209 -125 289
-147 77 -20 220 -23 272 -6 46 16 93 69 107 119 14 48 14 162 1 275 -6 48 -11
126 -12 173 -2 85 -1 87 50 188 29 56 52 110 52 120 0 9 -9 26 -20 37 -28 28
-85 26 -146 -5z m-129 -299 c52 -22 90 -84 114 -185 32 -136 25 -212 -26 -280
-35 -45 -82 -63 -170 -63 -133 1 -264 63 -325 153 -51 76 -28 162 65 245 71
62 218 133 300 143 4 1 23 -5 42 -13z"/>
<path d="M5073 1061 c-167 -61 -282 -167 -286 -265 -5 -121 184 -236 366 -223
81 5 112 24 145 88 21 40 23 54 19 139 -6 121 -35 208 -83 250 -41 36 -83 39
-161 11z m57 -221 c28 -28 25 -55 -7 -80 -20 -16 -36 -20 -57 -16 -59 12 -73
51 -34 93 27 29 71 30 98 3z"/>
<path d="M5052 843 c-21 -8 -34 -53 -21 -69 14 -17 71 -18 87 -2 39 39 -12 93
-66 71z"/>
<path d="M2035 1576 c-236 -89 -354 -158 -464 -269 -124 -126 -167 -228 -137
-330 11 -39 33 -72 87 -132 83 -93 101 -124 101 -174 0 -92 -156 -145 -324
-110 -29 6 -116 40 -193 76 -194 90 -221 94 -508 94 -131 -1 -280 4 -330 10
-83 10 -205 36 -249 54 -15 6 -18 2 -18 -23 0 -21 6 -33 19 -37 47 -15 194
-35 328 -45 345 -25 393 -31 455 -50 36 -11 118 -52 182 -91 171 -103 202
-113 371 -113 116 0 153 3 218 22 273 78 305 195 106 389 -44 43 -92 97 -106
121 -22 37 -25 51 -21 115 10 193 188 348 485 423 62 16 82 17 139 7 96 -17
213 -77 344 -179 222 -173 294 -268 294 -394 -1 -99 -27 -143 -180 -302 -145
-150 -160 -171 -233 -335 -54 -123 -101 -201 -157 -262 l-36 -41 41 0 c39 0
43 3 89 65 26 36 78 125 116 199 38 74 91 162 118 195 27 34 106 105 179 162
141 109 178 154 206 248 25 86 15 146 -40 232 -61 98 -105 139 -307 284 -52
37 -128 95 -168 129 -94 79 -164 116 -222 116 -30 0 -91 -18 -185 -54z"/>
<path d="M100 1609 c-97 -29 -117 -114 -81 -338 30 -184 133 -279 324 -300
183 -20 361 43 440 155 41 58 48 145 18 208 -51 104 -208 203 -397 252 -111
28 -251 39 -304 23z m371 -88 c84 -26 180 -89 218 -141 68 -94 62 -192 -18
-271 -68 -68 -139 -93 -271 -93 -95 -1 -110 1 -155 26 -112 59 -165 146 -165
273 0 117 43 193 125 224 44 16 189 6 266 -18z"/>
<path d="M223 1529 c-89 -21 -141 -121 -130 -246 10 -106 71 -188 172 -235 96
-44 273 -22 377 47 105 70 103 224 -4 321 -93 84 -299 140 -415 113z m229 -85
c143 -40 220 -186 147 -278 -38 -48 -95 -70 -184 -70 -88 -1 -137 17 -187 71
-68 72 -64 199 9 251 60 42 127 50 215 26z"/>
<path d="M275 1425 c-71 -39 -95 -93 -75 -174 22 -91 97 -141 215 -141 123 0
195 51 195 137 0 70 -41 129 -120 169 -50 25 -175 30 -215 9z"/>
<path d="M2027 1489 c-243 -69 -370 -158 -440 -307 -26 -57 -29 -69 -22 -125
3 -33 11 -70 17 -81 6 -11 53 -64 104 -118 112 -117 138 -162 132 -230 -3 -27
-13 -57 -24 -70 -84 -95 -327 -159 -521 -137 -101 11 -156 32 -275 104 -186
114 -208 120 -512 140 -203 13 -314 26 -449 51 -35 6 -37 5 -37 -20 0 -14 3
-26 8 -26 4 0 34 -5 67 -10 33 -5 168 -21 300 -34 271 -28 343 -46 433 -106
64 -43 96 -79 131 -149 45 -87 11 -116 -313 -266 l-216 -100 57 -3 c40 -2 70
3 104 17 26 12 101 35 166 52 201 51 326 43 524 -37 67 -26 101 -34 150 -34
l64 0 -61 40 c-78 50 -164 141 -164 172 0 63 53 90 280 147 202 51 280 80 344
129 83 63 107 142 67 220 -11 20 -56 73 -102 117 -179 174 -196 202 -186 299
7 68 27 106 89 173 89 93 201 143 323 143 129 0 233 -45 381 -164 217 -175
280 -306 211 -442 -14 -28 -71 -100 -126 -159 -113 -122 -143 -172 -200 -333
-48 -137 -88 -207 -162 -284 l-57 -58 38 0 c32 0 44 7 82 48 62 66 92 116 159
264 73 163 97 196 249 354 139 143 160 180 160 278 0 60 -34 139 -86 203 -53
65 -285 246 -375 293 -69 36 -184 71 -229 69 -8 0 -46 -9 -83 -20z"/>
<path d="M1962 1414 c-143 -38 -263 -147 -292 -266 -10 -38 -9 -56 5 -103 15
-53 27 -68 136 -173 174 -169 201 -239 131 -332 -65 -85 -147 -128 -341 -176
-223 -56 -280 -75 -312 -105 -16 -15 -29 -34 -29 -44 0 -25 96 -121 171 -171
l67 -44 108 0 109 1 -48 23 c-88 43 -145 114 -128 158 25 63 74 89 340 179
216 73 257 76 286 18 25 -47 19 -118 -15 -185 -35 -71 -86 -122 -160 -163
l-55 -31 78 0 79 0 62 63 c75 74 122 157 170 294 58 167 73 192 222 354 124
135 150 219 99 327 -30 65 -131 172 -236 252 -165 124 -304 163 -447 124z
m221 -90 c126 -64 252 -176 299 -267 47 -90 20 -199 -68 -277 -83 -72 -165
-87 -250 -45 -51 25 -210 142 -301 220 -68 59 -108 139 -99 197 19 117 138
196 294 198 59 0 82 -5 125 -26z"/>
<path d="M1960 1324 c-186 -49 -239 -216 -108 -341 70 -66 256 -205 315 -234
52 -26 70 -30 104 -25 80 13 165 77 203 153 21 42 20 118 -3 168 -41 90 -151
192 -274 255 -88 45 -139 50 -237 24z m162 -145 c108 -55 104 -175 -7 -173
-71 1 -165 69 -165 118 0 30 23 65 49 75 32 12 74 5 123 -20z"/>
<path d="M1988 1179 c-23 -13 -24 -66 -2 -97 36 -52 153 -81 188 -46 67 66
-100 194 -186 143z"/>
<path d="M7300 1229 c-52 -38 -120 -85 -151 -104 -80 -49 -234 -109 -384 -149
-219 -58 -270 -88 -314 -180 -60 -124 -54 -172 61 -466 54 -136 61 -165 66
-242 l5 -88 30 0 30 0 -7 68 c-4 37 -23 112 -42 167 -20 55 -51 143 -70 195
-61 171 -43 316 50 398 57 50 138 86 317 141 215 67 315 104 422 158 l87 43 0
65 c0 36 -1 65 -2 65 -2 0 -46 -32 -98 -71z"/>
<path d="M7318 1115 c-100 -52 -195 -87 -399 -151 -265 -81 -342 -124 -392
-219 -18 -33 -21 -57 -21 -135 0 -81 4 -107 31 -180 17 -47 48 -130 68 -185
24 -65 39 -125 42 -172 5 -62 9 -73 24 -73 37 0 17 103 -56 300 -65 172 -82
257 -66 335 37 184 183 267 666 380 88 20 166 39 173 41 13 4 18 94 5 94 -5
-1 -38 -17 -75 -35z"/>
<path d="M7325 1028 c-372 -91 -520 -136 -599 -182 -113 -66 -157 -131 -164
-241 -5 -88 6 -139 69 -311 47 -128 62 -179 74 -256 5 -32 10 -38 30 -38 14 0
25 3 25 6 0 22 -37 142 -70 223 -88 221 -105 315 -76 415 22 76 94 150 190
195 131 63 442 123 552 106 l44 -6 0 50 c0 57 -1 57 -75 39z"/>
<path d="M7110 914 c-104 -19 -241 -59 -308 -91 -181 -85 -227 -229 -147 -455
20 -56 54 -152 76 -213 21 -60 39 -120 39 -132 0 -18 6 -23 26 -23 19 0 25 4
21 14 -3 8 -11 34 -17 58 -7 24 -37 105 -67 182 -62 158 -87 261 -77 320 24
151 149 249 372 292 119 23 275 14 355 -21 15 -6 17 -1 17 39 l0 46 -107 -1
c-60 -1 -142 -7 -183 -15z"/>
<path d="M6106 869 c-89 -21 -146 -86 -146 -168 0 -22 14 -93 31 -158 54 -204
68 -274 80 -410 l12 -133 59 0 c32 0 58 2 58 3 0 2 -6 17 -14 33 -48 95 -45
349 4 398 19 19 19 19 57 -6 49 -32 114 -117 150 -193 32 -70 37 -152 11 -202
l-16 -33 53 0 c46 0 53 3 59 22 19 73 -5 172 -79 331 -54 116 -90 220 -104
302 -6 33 -19 89 -29 125 -15 57 -22 67 -52 82 -38 19 -73 21 -134 7z"/>
<path d="M7078 860 c-180 -21 -332 -101 -384 -202 -23 -44 -29 -144 -14 -209
7 -30 37 -115 66 -189 29 -74 60 -163 70 -197 l17 -63 39 0 38 0 -33 68 c-63
125 -136 307 -153 377 -35 152 10 246 159 326 l62 34 166 0 166 0 61 -32 62
-32 0 43 c0 41 -2 43 -38 54 -43 13 -167 32 -197 30 -11 0 -50 -4 -87 -8z"/>
<path d="M6967 789 c-20 -5 -56 -18 -80 -30 -110 -56 -157 -123 -157 -223 0
-99 31 -192 147 -438 l46 -98 53 0 52 0 -51 53 c-67 68 -139 197 -179 317 -50
154 -39 230 46 308 140 129 397 116 524 -26 l32 -37 -2 55 c-3 53 -4 55 -48
82 -25 15 -69 32 -99 38 -64 12 -231 12 -284 -1z"/>
<path d="M6963 731 c-116 -40 -183 -120 -183 -220 0 -89 84 -292 169 -408 128
-176 286 -124 415 134 l36 73 0 138 c0 138 0 139 -30 180 -36 50 -91 88 -156
108 -65 20 -187 17 -251 -5z m244 -67 c89 -43 143 -127 143 -222 0 -50 -38
-155 -75 -204 -66 -90 -158 -128 -224 -94 -112 58 -211 222 -213 352 -2 162
194 252 369 168z"/>
<path d="M6949 652 c-93 -47 -120 -137 -80 -255 37 -107 110 -200 188 -240 61
-32 164 17 218 103 55 87 73 215 39 282 -62 125 -236 177 -365 110z m176 -53
c22 -6 56 -28 78 -50 39 -38 39 -40 35 -103 -9 -148 -130 -222 -228 -139 -33
28 -73 99 -84 149 -13 61 32 129 96 144 47 11 58 11 103 -1z"/>
<path d="M7004 580 c-35 -14 -64 -59 -64 -99 0 -20 11 -59 24 -86 65 -142 194
-148 251 -12 33 79 9 153 -59 187 -44 21 -114 26 -152 10z"/>
<path d="M2 624 l3 -39 160 -16 c302 -31 407 -57 475 -117 37 -33 43 -44 47
-87 4 -44 1 -55 -25 -90 -33 -46 -158 -135 -307 -219 l-100 -56 56 0 c48 0 77
10 205 69 383 176 424 201 424 255 0 34 -56 122 -102 159 -98 79 -166 99 -448
127 -231 23 -354 38 -376 47 -12 5 -15 -2 -12 -33z"/>
<path d="M0 536 l0 -34 68 -6 c208 -19 305 -47 365 -106 91 -91 18 -191 -253
-347 l-75 -43 59 0 c52 0 71 6 155 51 113 61 263 159 308 202 63 59 67 130 10
185 -61 58 -172 86 -469 117 -81 8 -152 15 -158 15 -5 0 -10 -15 -10 -34z"/>
<path d="M3158 510 c-34 -20 -40 -53 -48 -259 -5 -113 -12 -216 -16 -229 -6
-22 -5 -23 37 -20 l44 3 13 83 c14 94 31 134 67 158 47 31 101 -2 182 -110 25
-33 62 -78 82 -98 l35 -38 86 0 85 0 -55 32 c-77 44 -150 124 -231 254 -70
112 -146 196 -194 214 -46 18 -70 20 -87 10z"/>
<path d="M4243 471 c-39 -24 -71 -78 -123 -206 -63 -154 -103 -212 -175 -249
-28 -15 -23 -16 114 -16 l144 0 -28 22 c-26 21 -27 24 -23 97 8 132 84 246
182 272 79 22 192 -24 236 -96 61 -99 -13 -209 -185 -275 l-50 -19 72 -1 c63
0 79 4 125 31 122 72 168 125 168 194 0 75 -92 170 -225 232 -80 37 -185 43
-232 14z"/>
<path d="M0 446 l0 -33 78 -13 c135 -21 192 -59 192 -127 0 -68 -71 -140 -222
-228 -27 -15 -48 -31 -48 -36 0 -18 72 -8 123 17 68 35 202 119 241 150 91 75
113 157 57 210 -17 15 -51 36 -77 46 -54 22 -214 48 -291 48 l-53 0 0 -34z"/>
<path d="M6189 413 c-11 -12 -14 -55 -14 -172 0 -136 3 -161 20 -196 l20 -40
81 -3 81 -3 18 37 c40 85 -6 231 -108 338 -55 59 -76 67 -98 39z"/>
<path d="M1889 351 c-280 -95 -339 -128 -339 -187 0 -47 84 -119 171 -145 125
-38 245 -9 344 82 128 118 139 309 17 309 -9 0 -96 -27 -193 -59z"/>
<path d="M4 306 c2 -50 5 -95 5 -101 0 -5 -2 -45 -5 -87 -4 -43 -3 -78 2 -78
21 0 154 89 196 131 110 110 59 191 -137 217 l-66 9 5 -91z"/>
<path d="M2759 370 c-54 -28 -130 -118 -177 -207 -23 -43 -53 -97 -67 -120
l-26 -43 59 0 60 0 17 52 c30 92 86 158 149 174 20 5 32 0 56 -24 25 -25 30
-39 30 -77 0 -26 -9 -63 -20 -85 l-20 -40 64 0 64 0 12 51 c35 146 -3 290 -86
325 -44 18 -72 17 -115 -6z"/>
<path d="M4295 361 c-70 -43 -122 -139 -131 -243 -6 -56 -4 -65 15 -82 73 -66
311 10 378 121 45 74 18 146 -72 195 -62 34 -144 38 -190 9z"/>
<path d="M7380 240 c-27 -64 -110 -178 -152 -209 l-42 -31 66 0 67 0 41 78
c36 69 40 83 38 137 l-3 60 -15 -35z"/>
<path d="M3241 214 c-18 -24 -31 -69 -46 -171 l-7 -43 171 0 171 0 -53 68
c-91 117 -150 172 -185 172 -21 0 -37 -8 -51 -26z"/>
<path d="M2720 181 c-37 -30 -76 -97 -86 -149 l-6 -32 90 0 90 0 21 49 c24 56
26 92 10 124 -25 47 -69 50 -119 8z"/>
<path d="M7367 65 c-15 -31 -27 -58 -27 -60 0 -3 14 -5 30 -5 l30 0 0 60 c0
33 -1 60 -3 60 -2 0 -15 -25 -30 -55z"/>
<path d="M810 76 c-36 -8 -105 -28 -155 -44 l-90 -30 370 -1 c210 0 364 3 355
8 -8 5 -58 23 -110 41 -79 28 -112 34 -200 36 -63 2 -131 -2 -170 -10z"/>
</g>
</svg>
